<svg xmlns="http://www.w3.org/2000/svg" xmlns:xlink="http://www.w3.org/1999/xlink" width="500" zoomAndPan="magnify" viewBox="0 0 375 374.999991" height="500" preserveAspectRatio="xMidYMid meet" version="1.0"><defs><g/><clipPath id="2747ef2b3d"><path d="M 78.277344 172.078125 L 298.222656 172.078125 L 298.222656 197.695312 L 78.277344 197.695312 Z M 78.277344 172.078125 " clip-rule="nonzero"/></clipPath></defs><path stroke-linecap="butt" transform="matrix(0.00181951, -0.749998, 0.749998, 0.00181951, 188.248643, 253.500305)" fill="none" stroke-linejoin="miter" d="M 0.001624 0.501806 L 206.095988 0.501819 " stroke="#000000" stroke-width="1" stroke-opacity="1" stroke-miterlimit="4"/><g fill="#000000" fill-opacity="1"><g transform="translate(44.513871, 222.751627)"><g><path d="M 59.59375 -83.355469 C 59.59375 -57.566406 22.75 -54.34375 22.75 -46.054688 C 22.75 -40.804688 31.222656 -42.921875 41.449219 -27.632812 C 56 -5.804688 58.582031 0 62.816406 0 L 76.910156 0 L 76.910156 -0.921875 C 66.410156 -0.921875 57.75 -17.222656 49.09375 -30.121094 C 40.25 -43.382812 23.671875 -40.804688 23.671875 -46.054688 C 23.671875 -52.039062 68.25 -55.082031 68.25 -83.542969 C 68.25 -86.949219 67.144531 -90.542969 65.488281 -92.109375 L 56.371094 -92.109375 C 58.394531 -90.632812 59.59375 -86.765625 59.59375 -83.355469 Z M 2.761719 0 L 27.539062 0 L 27.539062 -0.921875 C 19.617188 -0.921875 19.066406 -7.460938 19.066406 -25.605469 L 19.066406 -66.5 C 19.066406 -84.648438 19.617188 -91.1875 27.539062 -91.1875 L 27.539062 -92.109375 L 2.761719 -92.109375 L 2.761719 -91.1875 C 10.683594 -91.1875 11.238281 -84.648438 11.238281 -66.5 L 11.238281 -25.605469 C 11.238281 -7.460938 10.683594 -0.921875 2.761719 -0.921875 Z M 2.761719 0 "/></g></g></g><g fill="#000000" fill-opacity="1"><g transform="translate(149.324476, 222.751627)"><g><path d="M 0 -91.1875 C 7 -91.1875 9.210938 -84.277344 17.59375 -68.25 C 23.304688 -57.566406 30.578125 -45.039062 33.710938 -38.960938 L 33.710938 -25.605469 C 33.710938 -7.460938 33.160156 -0.921875 25.238281 -0.921875 L 25.238281 0 L 50.105469 0 L 50.105469 -0.921875 C 42.183594 -0.921875 41.632812 -7.460938 41.632812 -25.605469 L 41.632812 -38.960938 C 44.765625 -45.039062 52.039062 -57.566406 57.75 -68.25 C 66.132812 -84.277344 68.34375 -91.1875 75.34375 -91.1875 L 75.34375 -92.109375 L 55.632812 -92.109375 L 55.632812 -91.1875 L 58.027344 -91.1875 C 60.605469 -91.1875 63.1875 -90.265625 63.1875 -86.949219 C 63.1875 -80.871094 47.710938 -52.960938 41.355469 -40.894531 C 35.644531 -52.039062 18.605469 -80.042969 18.605469 -86.304688 C 18.605469 -89.988281 21 -91.1875 23.578125 -91.1875 L 25.605469 -91.1875 L 25.605469 -92.109375 L 0 -92.109375 Z M 0 -91.1875 "/></g></g></g><g fill="#000000" fill-opacity="1"><g transform="translate(251.64844, 222.751627)"><g><path d="M 2.761719 0 L 27.539062 0 L 27.539062 -0.921875 C 19.617188 -0.921875 19.066406 -7.460938 19.066406 -25.605469 L 19.066406 -89.710938 C 24.683594 -91.738281 29.105469 -92.660156 35.921875 -92.660156 C 53.054688 -92.660156 63.832031 -83.265625 63.832031 -67.976562 C 63.832031 -56.921875 56.371094 -45.59375 44.855469 -45.59375 C 36.289062 -45.59375 32.054688 -50.84375 26.617188 -50.84375 C 24.960938 -50.84375 23.394531 -49.921875 23.394531 -47.710938 C 23.394531 -41.449219 33.160156 -41.078125 42.09375 -27.632812 C 56.644531 -5.804688 59.226562 0 63.460938 0 L 77.554688 0 L 77.554688 -0.921875 C 67.054688 -0.921875 58.488281 -17.316406 51.210938 -28.644531 C 43.75 -40.25 24.316406 -41.539062 24.316406 -47.527344 C 24.316406 -49.644531 25.882812 -49.921875 26.988281 -49.921875 C 30.855469 -49.921875 36.75 -44.027344 45.410156 -44.027344 C 61.4375 -44.027344 71.75 -55.449219 71.75 -68.066406 C 71.75 -83.082031 60.789062 -93.949219 41.171875 -93.949219 C 30.488281 -93.949219 23.949219 -92.109375 13.816406 -92.109375 L 2.761719 -92.109375 L 2.761719 -91.1875 C 10.683594 -91.1875 11.238281 -84.648438 11.238281 -66.5 L 11.238281 -25.605469 C 11.238281 -7.460938 10.683594 -0.921875 2.761719 -0.921875 Z M 2.761719 0 "/></g></g></g><g clip-path="url(#2747ef2b3d)"><path fill="#e6e6e6" d="M 78.277344 172.078125 L 298.222656 172.078125 L 298.222656 197.695312 L 78.277344 197.695312 Z M 78.277344 172.078125 " fill-opacity="1" fill-rule="nonzero"/></g><g fill="#000000" fill-opacity="1"><g transform="translate(80.769727, 189.763406)"><g><path d="M 4.8125 -4.78125 L 2.734375 -2.671875 L 2.734375 0 L 1.65625 0 L 1.65625 -10.171875 L 2.734375 -10.171875 L 2.734375 -4.03125 L 8.703125 -10.171875 L 9.9375 -10.171875 L 5.53125 -5.5625 L 10.25 0 L 8.96875 0 Z M 4.8125 -4.78125 "/></g></g></g><g fill="#000000" fill-opacity="1"><g transform="translate(95.727778, 189.763406)"><g><path d="M 10.15625 -10.171875 L 10.15625 0 L 9.265625 0 L 2.734375 -8.25 L 2.734375 0 L 1.65625 0 L 1.65625 -10.171875 L 2.546875 -10.171875 L 9.09375 -1.921875 L 9.09375 -10.171875 Z M 10.15625 -10.171875 "/></g></g></g><g fill="#000000" fill-opacity="1"><g transform="translate(112.16682, 189.763406)"><g><path d="M 6.109375 0.09375 C 5.097656 0.09375 4.179688 -0.128906 3.359375 -0.578125 C 2.546875 -1.035156 1.90625 -1.65625 1.4375 -2.4375 C 0.976562 -3.226562 0.75 -4.109375 0.75 -5.078125 C 0.75 -6.054688 0.976562 -6.9375 1.4375 -7.71875 C 1.90625 -8.507812 2.546875 -9.128906 3.359375 -9.578125 C 4.179688 -10.035156 5.097656 -10.265625 6.109375 -10.265625 C 7.109375 -10.265625 8.015625 -10.039062 8.828125 -9.59375 C 9.640625 -9.144531 10.273438 -8.523438 10.734375 -7.734375 C 11.203125 -6.941406 11.4375 -6.054688 11.4375 -5.078125 C 11.4375 -4.109375 11.203125 -3.226562 10.734375 -2.4375 C 10.273438 -1.644531 9.640625 -1.023438 8.828125 -0.578125 C 8.015625 -0.128906 7.109375 0.09375 6.109375 0.09375 Z M 6.109375 -0.875 C 6.910156 -0.875 7.632812 -1.054688 8.28125 -1.421875 C 8.925781 -1.785156 9.429688 -2.285156 9.796875 -2.921875 C 10.171875 -3.566406 10.359375 -4.285156 10.359375 -5.078125 C 10.359375 -5.878906 10.171875 -6.597656 9.796875 -7.234375 C 9.429688 -7.878906 8.925781 -8.382812 8.28125 -8.75 C 7.632812 -9.113281 6.910156 -9.296875 6.109375 -9.296875 C 5.296875 -9.296875 4.5625 -9.113281 3.90625 -8.75 C 3.257812 -8.382812 2.75 -7.878906 2.375 -7.234375 C 2 -6.597656 1.8125 -5.878906 1.8125 -5.078125 C 1.8125 -4.285156 2 -3.566406 2.375 -2.921875 C 2.75 -2.285156 3.257812 -1.785156 3.90625 -1.421875 C 4.5625 -1.054688 5.296875 -0.875 6.109375 -0.875 Z M 6.109375 -0.875 "/></g></g></g><g fill="#000000" fill-opacity="1"><g transform="translate(128.983368, 189.763406)"><g><path d="M 15.625 -10.171875 L 12.1875 0 L 11.0625 0 L 8.078125 -8.671875 L 5.078125 0 L 3.96875 0 L 0.53125 -10.171875 L 1.640625 -10.171875 L 4.578125 -1.421875 L 7.609375 -10.171875 L 8.609375 -10.171875 L 11.609375 -1.375 L 14.59375 -10.171875 Z M 15.625 -10.171875 "/></g></g></g><g fill="#000000" fill-opacity="1"><g transform="translate(149.749226, 189.763406)"><g/></g></g><g fill="#000000" fill-opacity="1"><g transform="translate(158.188013, 189.763406)"><g><path d="M 5.140625 -3.515625 L 5.140625 0 L 4.078125 0 L 4.078125 -3.515625 L 0.015625 -10.171875 L 1.15625 -10.171875 L 4.65625 -4.46875 L 8.140625 -10.171875 L 9.21875 -10.171875 Z M 5.140625 -3.515625 "/></g></g></g><g fill="#000000" fill-opacity="1"><g transform="translate(172.042579, 189.763406)"><g><path d="M 6.109375 0.09375 C 5.097656 0.09375 4.179688 -0.128906 3.359375 -0.578125 C 2.546875 -1.035156 1.90625 -1.65625 1.4375 -2.4375 C 0.976562 -3.226562 0.75 -4.109375 0.75 -5.078125 C 0.75 -6.054688 0.976562 -6.9375 1.4375 -7.71875 C 1.90625 -8.507812 2.546875 -9.128906 3.359375 -9.578125 C 4.179688 -10.035156 5.097656 -10.265625 6.109375 -10.265625 C 7.109375 -10.265625 8.015625 -10.039062 8.828125 -9.59375 C 9.640625 -9.144531 10.273438 -8.523438 10.734375 -7.734375 C 11.203125 -6.941406 11.4375 -6.054688 11.4375 -5.078125 C 11.4375 -4.109375 11.203125 -3.226562 10.734375 -2.4375 C 10.273438 -1.644531 9.640625 -1.023438 8.828125 -0.578125 C 8.015625 -0.128906 7.109375 0.09375 6.109375 0.09375 Z M 6.109375 -0.875 C 6.910156 -0.875 7.632812 -1.054688 8.28125 -1.421875 C 8.925781 -1.785156 9.429688 -2.285156 9.796875 -2.921875 C 10.171875 -3.566406 10.359375 -4.285156 10.359375 -5.078125 C 10.359375 -5.878906 10.171875 -6.597656 9.796875 -7.234375 C 9.429688 -7.878906 8.925781 -8.382812 8.28125 -8.75 C 7.632812 -9.113281 6.910156 -9.296875 6.109375 -9.296875 C 5.296875 -9.296875 4.5625 -9.113281 3.90625 -8.75 C 3.257812 -8.382812 2.75 -7.878906 2.375 -7.234375 C 2 -6.597656 1.8125 -5.878906 1.8125 -5.078125 C 1.8125 -4.285156 2 -3.566406 2.375 -2.921875 C 2.75 -2.285156 3.257812 -1.785156 3.90625 -1.421875 C 4.5625 -1.054688 5.296875 -0.875 6.109375 -0.875 Z M 6.109375 -0.875 "/></g></g></g><g fill="#000000" fill-opacity="1"><g transform="translate(188.859121, 189.763406)"><g><path d="M 5.75 0.09375 C 4.4375 0.09375 3.410156 -0.28125 2.671875 -1.03125 C 1.929688 -1.789062 1.5625 -2.894531 1.5625 -4.34375 L 1.5625 -10.171875 L 2.640625 -10.171875 L 2.640625 -4.390625 C 2.640625 -3.203125 2.90625 -2.316406 3.4375 -1.734375 C 3.976562 -1.160156 4.75 -0.875 5.75 -0.875 C 6.769531 -0.875 7.546875 -1.160156 8.078125 -1.734375 C 8.609375 -2.316406 8.875 -3.203125 8.875 -4.390625 L 8.875 -10.171875 L 9.921875 -10.171875 L 9.921875 -4.34375 C 9.921875 -2.894531 9.554688 -1.789062 8.828125 -1.03125 C 8.097656 -0.28125 7.070312 0.09375 5.75 0.09375 Z M 5.75 0.09375 "/></g></g></g><g fill="#000000" fill-opacity="1"><g transform="translate(204.993253, 189.763406)"><g><path d="M 8.609375 0 L 6.28125 -3.265625 C 6.019531 -3.234375 5.75 -3.21875 5.46875 -3.21875 L 2.734375 -3.21875 L 2.734375 0 L 1.65625 0 L 1.65625 -10.171875 L 5.46875 -10.171875 C 6.757812 -10.171875 7.773438 -9.859375 8.515625 -9.234375 C 9.253906 -8.617188 9.625 -7.769531 9.625 -6.6875 C 9.625 -5.894531 9.421875 -5.222656 9.015625 -4.671875 C 8.609375 -4.117188 8.035156 -3.722656 7.296875 -3.484375 L 9.78125 0 Z M 5.4375 -4.140625 C 6.445312 -4.140625 7.21875 -4.363281 7.75 -4.8125 C 8.28125 -5.257812 8.546875 -5.882812 8.546875 -6.6875 C 8.546875 -7.507812 8.28125 -8.140625 7.75 -8.578125 C 7.21875 -9.015625 6.445312 -9.234375 5.4375 -9.234375 L 2.734375 -9.234375 L 2.734375 -4.140625 Z M 5.4375 -4.140625 "/></g></g></g><g fill="#000000" fill-opacity="1"><g transform="translate(220.125546, 189.763406)"><g/></g></g><g fill="#000000" fill-opacity="1"><g transform="translate(228.564327, 189.763406)"><g><path d="M 8.609375 0 L 6.28125 -3.265625 C 6.019531 -3.234375 5.75 -3.21875 5.46875 -3.21875 L 2.734375 -3.21875 L 2.734375 0 L 1.65625 0 L 1.65625 -10.171875 L 5.46875 -10.171875 C 6.757812 -10.171875 7.773438 -9.859375 8.515625 -9.234375 C 9.253906 -8.617188 9.625 -7.769531 9.625 -6.6875 C 9.625 -5.894531 9.421875 -5.222656 9.015625 -4.671875 C 8.609375 -4.117188 8.035156 -3.722656 7.296875 -3.484375 L 9.78125 0 Z M 5.4375 -4.140625 C 6.445312 -4.140625 7.21875 -4.363281 7.75 -4.8125 C 8.28125 -5.257812 8.546875 -5.882812 8.546875 -6.6875 C 8.546875 -7.507812 8.28125 -8.140625 7.75 -8.578125 C 7.21875 -9.015625 6.445312 -9.234375 5.4375 -9.234375 L 2.734375 -9.234375 L 2.734375 -4.140625 Z M 5.4375 -4.140625 "/></g></g></g><g fill="#000000" fill-opacity="1"><g transform="translate(243.69662, 189.763406)"><g><path d="M 1.65625 -10.171875 L 2.734375 -10.171875 L 2.734375 0 L 1.65625 0 Z M 1.65625 -10.171875 "/></g></g></g><g fill="#000000" fill-opacity="1"><g transform="translate(252.716189, 189.763406)"><g><path d="M 8.828125 -5.078125 L 9.859375 -5.078125 L 9.859375 -1.203125 C 9.378906 -0.785156 8.8125 -0.460938 8.15625 -0.234375 C 7.507812 -0.015625 6.832031 0.09375 6.125 0.09375 C 5.101562 0.09375 4.1875 -0.128906 3.375 -0.578125 C 2.5625 -1.023438 1.921875 -1.644531 1.453125 -2.4375 C 0.984375 -3.226562 0.75 -4.109375 0.75 -5.078125 C 0.75 -6.054688 0.984375 -6.941406 1.453125 -7.734375 C 1.921875 -8.523438 2.5625 -9.144531 3.375 -9.59375 C 4.1875 -10.039062 5.101562 -10.265625 6.125 -10.265625 C 6.90625 -10.265625 7.617188 -10.140625 8.265625 -9.890625 C 8.910156 -9.640625 9.457031 -9.273438 9.90625 -8.796875 L 9.234375 -8.109375 C 8.429688 -8.898438 7.410156 -9.296875 6.171875 -9.296875 C 5.347656 -9.296875 4.601562 -9.113281 3.9375 -8.75 C 3.28125 -8.382812 2.757812 -7.878906 2.375 -7.234375 C 2 -6.597656 1.8125 -5.878906 1.8125 -5.078125 C 1.8125 -4.285156 2 -3.566406 2.375 -2.921875 C 2.757812 -2.285156 3.28125 -1.785156 3.9375 -1.421875 C 4.59375 -1.054688 5.332031 -0.875 6.15625 -0.875 C 7.207031 -0.875 8.097656 -1.132812 8.828125 -1.65625 Z M 8.828125 -5.078125 "/></g></g></g><g fill="#000000" fill-opacity="1"><g transform="translate(268.574449, 189.763406)"><g><path d="M 10.15625 -10.171875 L 10.15625 0 L 9.09375 0 L 9.09375 -4.6875 L 2.734375 -4.6875 L 2.734375 0 L 1.65625 0 L 1.65625 -10.171875 L 2.734375 -10.171875 L 2.734375 -5.640625 L 9.09375 -5.640625 L 9.09375 -10.171875 Z M 10.15625 -10.171875 "/></g></g></g><g fill="#000000" fill-opacity="1"><g transform="translate(285.013497, 189.763406)"><g><path d="M 3.625 -9.234375 L 0.0625 -9.234375 L 0.0625 -10.171875 L 8.28125 -10.171875 L 8.28125 -9.234375 L 4.703125 -9.234375 L 4.703125 0 L 3.625 0 Z M 3.625 -9.234375 "/></g></g></g></svg>